<svg preserveAspectRatio="none" width="100%" height="100%" overflow="visible" style="display: block;" viewBox="0 0 20 20" fill="none" xmlns="http://www.w3.org/2000/svg">
<g id="Layer_1" clip-path="url(#clip0_0_107)">
<path id="Vector" d="M5.69659 19.1704C2.61266 17.938 0.660639 15.4967 0.175126 12.3388C-0.0797323 10.6853 -0.0797323 9.00802 0.328896 7.35866C0.437104 6.92367 1.11768 6.8428 1.43376 7.06309L2.99423 8.145L8.69367 8.08644C7.52759 6.05507 7.50765 3.82572 8.93714 1.99791C10.1602 0.434995 12.3557 -0.408505 14.5654 0.197978C16.4448 0.713838 18.0081 2.34089 18.3384 4.46009C18.9094 4.85326 19.6967 4.75845 19.9374 5.36494C20.1011 5.77762 19.9188 6.0732 19.6312 6.33949L16.9687 8.80307C19.4746 10.9181 19.7181 14.5082 17.4315 16.9272C14.497 20.0321 9.75155 20.7919 5.69659 19.1704Z" fill="var(--fill-0, #FBFDFD)"/>
</g>
<defs>
<clipPath id="clip0_0_107">
<rect width="20" height="20" fill="white"/>
</clipPath>
</defs>
</svg>
